<svg xmlns="http://www.w3.org/2000/svg" version="1.1" xmlns:xlink="http://www.w3.org/1999/xlink" xmlns:svgjs="http://svgjs.com/svgjs" width="1440" height="560" preserveAspectRatio="none" viewBox="0 0 1440 560"><g mask="url(&quot;#SvgjsMask1001&quot;)" fill="none"><rect width="1440" height="560" x="0" y="0" fill="#0e2a47"></rect><path d="M53.68 390.95L118.63 428.45L118.63 503.45L53.68 540.95L-11.27 503.45L-11.27 428.45zM183.59 -59.05L248.54 -21.55L248.54 53.45L183.59 90.95L118.63 53.45L118.63 -21.55zM248.54 503.45L313.5 540.95L313.5 615.95L248.54 653.45L183.59 615.95L183.59 540.95zM898.08 278.45L963.03 315.95L963.03 390.95L898.08 428.45L833.12 390.95L833.12 315.95zM833.12 390.95L898.08 428.45L898.08 503.45L833.12 540.95L768.17 503.45L768.17 428.45zM1092.94 165.95L1157.89 203.45L1157.89 278.45L1092.94 315.95L1027.99 278.45L1027.99 203.45zM1092.94 390.95L1157.89 428.45L1157.89 503.45L1092.94 540.95L1027.99 503.45L1027.99 428.45zM1547.62 278.45L1612.57 315.95L1612.57 390.95L1547.62 428.45L1482.66 390.95L1482.66 315.95z" stroke="#03305d" stroke-width="2"></path><path d="M46.18 390.95 a7.5 7.5 0 1 0 15 0 a7.5 7.5 0 1 0 -15 0zM111.13 428.45 a7.5 7.5 0 1 0 15 0 a7.5 7.5 0 1 0 -15 0zM111.13 503.45 a7.5 7.5 0 1 0 15 0 a7.5 7.5 0 1 0 -15 0zM46.18 540.95 a7.5 7.5 0 1 0 15 0 a7.5 7.5 0 1 0 -15 0zM-18.77 503.45 a7.5 7.5 0 1 0 15 0 a7.5 7.5 0 1 0 -15 0zM-18.77 428.45 a7.5 7.5 0 1 0 15 0 a7.5 7.5 0 1 0 -15 0zM176.09 -59.05 a7.5 7.5 0 1 0 15 0 a7.5 7.5 0 1 0 -15 0zM241.04 -21.55 a7.5 7.5 0 1 0 15 0 a7.5 7.5 0 1 0 -15 0zM241.04 53.45 a7.5 7.5 0 1 0 15 0 a7.5 7.5 0 1 0 -15 0zM176.09 90.95 a7.5 7.5 0 1 0 15 0 a7.5 7.5 0 1 0 -15 0zM111.13 53.45 a7.5 7.5 0 1 0 15 0 a7.5 7.5 0 1 0 -15 0zM111.13 -21.55 a7.5 7.5 0 1 0 15 0 a7.5 7.5 0 1 0 -15 0zM241.04 503.45 a7.5 7.5 0 1 0 15 0 a7.5 7.5 0 1 0 -15 0zM306 540.95 a7.5 7.5 0 1 0 15 0 a7.5 7.5 0 1 0 -15 0zM306 615.95 a7.5 7.5 0 1 0 15 0 a7.5 7.5 0 1 0 -15 0zM241.04 653.45 a7.5 7.5 0 1 0 15 0 a7.5 7.5 0 1 0 -15 0zM176.09 615.95 a7.5 7.5 0 1 0 15 0 a7.5 7.5 0 1 0 -15 0zM176.09 540.95 a7.5 7.5 0 1 0 15 0 a7.5 7.5 0 1 0 -15 0zM890.58 278.45 a7.5 7.5 0 1 0 15 0 a7.5 7.5 0 1 0 -15 0zM955.53 315.95 a7.5 7.5 0 1 0 15 0 a7.5 7.5 0 1 0 -15 0zM955.53 390.95 a7.5 7.5 0 1 0 15 0 a7.5 7.5 0 1 0 -15 0zM890.58 428.45 a7.5 7.5 0 1 0 15 0 a7.5 7.5 0 1 0 -15 0zM825.62 390.95 a7.5 7.5 0 1 0 15 0 a7.5 7.5 0 1 0 -15 0zM825.62 315.95 a7.5 7.5 0 1 0 15 0 a7.5 7.5 0 1 0 -15 0zM890.58 503.45 a7.5 7.5 0 1 0 15 0 a7.5 7.5 0 1 0 -15 0zM825.62 540.95 a7.5 7.5 0 1 0 15 0 a7.5 7.5 0 1 0 -15 0zM760.67 503.45 a7.5 7.5 0 1 0 15 0 a7.5 7.5 0 1 0 -15 0zM760.67 428.45 a7.5 7.5 0 1 0 15 0 a7.5 7.5 0 1 0 -15 0zM1085.44 165.95 a7.5 7.5 0 1 0 15 0 a7.5 7.5 0 1 0 -15 0zM1150.39 203.45 a7.5 7.5 0 1 0 15 0 a7.5 7.5 0 1 0 -15 0zM1150.39 278.45 a7.5 7.5 0 1 0 15 0 a7.5 7.5 0 1 0 -15 0zM1085.44 315.95 a7.5 7.5 0 1 0 15 0 a7.5 7.5 0 1 0 -15 0zM1020.49 278.45 a7.5 7.5 0 1 0 15 0 a7.5 7.5 0 1 0 -15 0zM1020.49 203.45 a7.5 7.5 0 1 0 15 0 a7.5 7.5 0 1 0 -15 0zM1085.44 390.95 a7.5 7.5 0 1 0 15 0 a7.5 7.5 0 1 0 -15 0zM1150.39 428.45 a7.5 7.5 0 1 0 15 0 a7.5 7.5 0 1 0 -15 0zM1150.39 503.45 a7.5 7.5 0 1 0 15 0 a7.5 7.5 0 1 0 -15 0zM1085.44 540.95 a7.5 7.5 0 1 0 15 0 a7.5 7.5 0 1 0 -15 0zM1020.49 503.45 a7.5 7.5 0 1 0 15 0 a7.5 7.5 0 1 0 -15 0zM1020.49 428.45 a7.5 7.5 0 1 0 15 0 a7.5 7.5 0 1 0 -15 0zM1540.12 278.45 a7.5 7.5 0 1 0 15 0 a7.5 7.5 0 1 0 -15 0zM1605.07 315.95 a7.5 7.5 0 1 0 15 0 a7.5 7.5 0 1 0 -15 0zM1605.07 390.95 a7.5 7.5 0 1 0 15 0 a7.5 7.5 0 1 0 -15 0zM1540.12 428.45 a7.5 7.5 0 1 0 15 0 a7.5 7.5 0 1 0 -15 0zM1475.16 390.95 a7.5 7.5 0 1 0 15 0 a7.5 7.5 0 1 0 -15 0zM1475.16 315.95 a7.5 7.5 0 1 0 15 0 a7.5 7.5 0 1 0 -15 0z" fill="#03305d"></path><path d="M45.36 131.59L88.66 156.59L88.66 206.59L45.36 231.59L2.06 206.59L2.06 156.59zM88.66 206.59L131.97 231.59L131.97 281.59L88.66 306.59L45.36 281.59L45.36 231.59zM45.36 281.59L88.66 306.59L88.66 356.59L45.36 381.59L2.06 356.59L2.06 306.59zM175.27 356.59L218.57 381.59L218.57 431.59L175.27 456.59L131.97 431.59L131.97 381.59zM131.97 431.59L175.27 456.59L175.27 506.59L131.97 531.59L88.66 506.59L88.66 456.59zM175.27 506.59L218.57 531.59L218.57 581.59L175.27 606.59L131.97 581.59L131.97 531.59zM261.87 56.59L305.18 81.59L305.18 131.59L261.87 156.59L218.57 131.59L218.57 81.59zM218.57 131.59L261.87 156.59L261.87 206.59L218.57 231.59L175.27 206.59L175.27 156.59zM218.57 281.59L261.87 306.59L261.87 356.59L218.57 381.59L175.27 356.59L175.27 306.59zM261.87 356.59L305.18 381.59L305.18 431.59L261.87 456.59L218.57 431.59L218.57 381.59zM218.57 431.59L261.87 456.59L261.87 506.59L218.57 531.59L175.27 506.59L175.27 456.59zM305.18 -18.41L348.48 6.59L348.48 56.59L305.18 81.59L261.87 56.59L261.87 6.59zM348.48 206.59L391.78 231.59L391.78 281.59L348.48 306.59L305.18 281.59L305.18 231.59zM305.18 281.59L348.48 306.59L348.48 356.59L305.18 381.59L261.87 356.59L261.87 306.59zM305.18 431.59L348.48 456.59L348.48 506.59L305.18 531.59L261.87 506.59L261.87 456.59zM391.78 -18.41L435.08 6.59L435.08 56.59L391.78 81.59L348.48 56.59L348.48 6.59zM435.08 206.59L478.39 231.59L478.39 281.59L435.08 306.59L391.78 281.59L391.78 231.59zM391.78 431.59L435.08 456.59L435.08 506.59L391.78 531.59L348.48 506.59L348.48 456.59zM435.08 506.59L478.39 531.59L478.39 581.59L435.08 606.59L391.78 581.59L391.78 531.59zM478.39 -18.41L521.69 6.59L521.69 56.59L478.39 81.59L435.08 56.59L435.08 6.59zM478.39 131.59L521.69 156.59L521.69 206.59L478.39 231.59L435.08 206.59L435.08 156.59zM521.69 356.59L564.99 381.59L564.99 431.59L521.69 456.59L478.39 431.59L478.39 381.59zM478.39 431.59L521.69 456.59L521.69 506.59L478.39 531.59L435.08 506.59L435.08 456.59zM521.69 506.59L564.99 531.59L564.99 581.59L521.69 606.59L478.39 581.59L478.39 531.59zM608.29 206.59L651.6 231.59L651.6 281.59L608.29 306.59L564.99 281.59L564.99 231.59zM608.29 506.59L651.6 531.59L651.6 581.59L608.29 606.59L564.99 581.59L564.99 531.59zM651.6 -18.41L694.9 6.59L694.9 56.59L651.6 81.59L608.29 56.59L608.29 6.59zM694.9 56.59L738.2 81.59L738.2 131.59L694.9 156.59L651.6 131.59L651.6 81.59zM651.6 131.59L694.9 156.59L694.9 206.59L651.6 231.59L608.29 206.59L608.29 156.59zM651.6 431.59L694.9 456.59L694.9 506.59L651.6 531.59L608.29 506.59L608.29 456.59zM694.9 506.59L738.2 531.59L738.2 581.59L694.9 606.59L651.6 581.59L651.6 531.59zM738.2 -18.41L781.5 6.59L781.5 56.59L738.2 81.59L694.9 56.59L694.9 6.59zM781.5 56.59L824.81 81.59L824.81 131.59L781.5 156.59L738.2 131.59L738.2 81.59zM738.2 131.59L781.5 156.59L781.5 206.59L738.2 231.59L694.9 206.59L694.9 156.59zM738.2 281.59L781.5 306.59L781.5 356.59L738.2 381.59L694.9 356.59L694.9 306.59zM781.5 506.59L824.81 531.59L824.81 581.59L781.5 606.59L738.2 581.59L738.2 531.59zM868.11 56.59L911.41 81.59L911.41 131.59L868.11 156.59L824.81 131.59L824.81 81.59zM824.81 131.59L868.11 156.59L868.11 206.59L824.81 231.59L781.5 206.59L781.5 156.59zM824.81 281.59L868.11 306.59L868.11 356.59L824.81 381.59L781.5 356.59L781.5 306.59zM868.11 356.59L911.41 381.59L911.41 431.59L868.11 456.59L824.81 431.59L824.81 381.59zM824.81 431.59L868.11 456.59L868.11 506.59L824.81 531.59L781.5 506.59L781.5 456.59zM868.11 506.59L911.41 531.59L911.41 581.59L868.11 606.59L824.81 581.59L824.81 531.59zM954.71 56.59L998.02 81.59L998.02 131.59L954.71 156.59L911.41 131.59L911.41 81.59zM954.71 206.59L998.02 231.59L998.02 281.59L954.71 306.59L911.41 281.59L911.41 231.59zM998.02 131.59L1041.32 156.59L1041.32 206.59L998.02 231.59L954.71 206.59L954.71 156.59zM1127.92 56.59L1171.22 81.59L1171.22 131.59L1127.92 156.59L1084.62 131.59L1084.62 81.59zM1084.62 281.59L1127.92 306.59L1127.92 356.59L1084.62 381.59L1041.32 356.59L1041.32 306.59zM1127.92 356.59L1171.22 381.59L1171.22 431.59L1127.92 456.59L1084.62 431.59L1084.62 381.59zM1127.92 506.59L1171.22 531.59L1171.22 581.59L1127.92 606.59L1084.62 581.59L1084.62 531.59zM1171.22 131.59L1214.53 156.59L1214.53 206.59L1171.22 231.59L1127.92 206.59L1127.92 156.59zM1171.22 281.59L1214.53 306.59L1214.53 356.59L1171.22 381.59L1127.92 356.59L1127.92 306.59zM1214.53 356.59L1257.83 381.59L1257.83 431.59L1214.53 456.59L1171.22 431.59L1171.22 381.59zM1214.53 506.59L1257.83 531.59L1257.83 581.59L1214.53 606.59L1171.22 581.59L1171.22 531.59zM1257.83 -18.41L1301.13 6.59L1301.13 56.59L1257.83 81.59L1214.53 56.59L1214.53 6.59zM1301.13 56.59L1344.43 81.59L1344.43 131.59L1301.13 156.59L1257.83 131.59L1257.83 81.59zM1301.13 206.59L1344.43 231.59L1344.43 281.59L1301.13 306.59L1257.83 281.59L1257.83 231.59zM1257.83 281.59L1301.13 306.59L1301.13 356.59L1257.83 381.59L1214.53 356.59L1214.53 306.59zM1257.83 431.59L1301.13 456.59L1301.13 506.59L1257.83 531.59L1214.53 506.59L1214.53 456.59zM1344.43 -18.41L1387.74 6.59L1387.74 56.59L1344.43 81.59L1301.13 56.59L1301.13 6.59zM1387.74 56.59L1431.04 81.59L1431.04 131.59L1387.74 156.59L1344.43 131.59L1344.43 81.59zM1344.43 131.59L1387.74 156.59L1387.74 206.59L1344.43 231.59L1301.13 206.59L1301.13 156.59zM1387.74 206.59L1431.04 231.59L1431.04 281.59L1387.74 306.59L1344.43 281.59L1344.43 231.59zM1344.43 431.59L1387.74 456.59L1387.74 506.59L1344.43 531.59L1301.13 506.59L1301.13 456.59zM1474.34 56.59L1517.64 81.59L1517.64 131.59L1474.34 156.59L1431.04 131.59L1431.04 81.59zM1431.04 131.59L1474.34 156.59L1474.34 206.59L1431.04 231.59L1387.74 206.59L1387.74 156.59z" stroke="rgba(129, 17, 237, 0.93)" stroke-width="2"></path></g><defs><mask id="SvgjsMask1001"><rect width="1440" height="560" fill="#ffffff"></rect></mask></defs></svg>