 <svg  version="1.0" xmlns="http://www.w3.org/2000/svg"  width="1350.000000pt" height="708.000000pt" viewBox="0 0 1350.000000 708.000000"  preserveAspectRatio="xMidYMid meet">  <g transform="translate(0.000000,708.000000) scale(0.100000,-0.100000)" fill="#ffffff" stroke="none"> <path d="M3736 6831 c-19 -20 -27 -40 -29 -68 -1 -35 4 -45 36 -75 l37 -35 -6 -79 c-3 -44 -10 -92 -16 -109 -16 -48 -23 -238 -9 -263 16 -30 27 -27 35 8 3 17 18 47 33 66 23 31 28 49 34 137 4 56 8 145 8 198 1 82 -2 99 -19 119 -11 13 -20 34 -20 47 0 31 -27 83 -43 83 -7 0 -26 -13 -41 -29z"/> <path d="M6188 6656 c-61 -19 -90 -77 -108 -216 -10 -71 -28 -162 -46 -224 -20 -68 -17 -116 7 -146 18 -22 29 -25 74 -23 30 1 69 10 87 19 49 26 161 24 213 -3 42 -22 99 -78 130 -128 30 -46 27 -176 -5 -230 -32 -55 -58 -83 -105 -113 -36 -24 -50 -27 -130 -26 -99 0 -119 8 -193 76 -48 44 -73 58 -107 58 -60 0 -88 -42 -100 -147 -4 -32 -13 -80 -21 -107 -8 -27 -14 -63 -14 -78 0 -16 -7 -52 -16 -79 -10 -29 -14 -66 -11 -88 4 -33 1 -43 -22 -63 -62 -55 -130 -71 -167 -40 -44 37 -46 52 -43 296 5 334 13 323 -268 328 -105 1 -195 -1 -199 -5 -4 -4 2 -17 13 -30 12 -12 23 -31 25 -42 3 -12 10 -18 19 -16 29 9 205 9 239 0 19 -5 45 -22 57 -38 20 -26 22 -42 27 -202 3 -96 7 -183 10 -194 3 -11 7 -32 11 -47 8 -41 57 -91 114 -117 l50 -24 39 26 c21 15 42 27 48 27 5 0 27 -14 48 -30 22 -17 51 -30 65 -30 57 0 202 -33 225 -51 22 -17 23 -22 13 -50 -14 -35 -120 -133 -163 -149 -15 -6 -35 -8 -43 -4 -53 21 -203 57 -238 57 -42 0 -49 -4 -135 -73 -30 -25 -47 -148 -41 -311 4 -131 3 -142 -18 -176 -33 -53 -65 -62 -211 -58 -70 2 -136 8 -147 14 -38 21 -45 48 -26 107 22 69 16 222 -10 274 -27 53 -94 122 -150 154 -46 27 -58 30 -165 32 l-115 2 -52 -37 c-41 -28 -60 -51 -88 -105 -19 -37 -35 -79 -35 -91 0 -13 -4 -27 -10 -30 -12 -8 -13 -119 -1 -143 9 -17 31 -104 31 -122 0 -6 -6 -10 -13 -10 -8 0 -23 -10 -35 -23 -20 -21 -28 -22 -164 -22 -119 0 -147 3 -168 18 -13 9 -30 17 -37 17 -16 0 -33 32 -33 62 0 13 -8 34 -17 48 -12 16 -17 48 -19 104 -5 170 -4 1194 1 1208 3 7 25 19 48 25 52 14 426 15 482 1 32 -8 232 -16 438 -17 27 0 43 -7 55 -21 14 -17 26 -21 60 -18 l43 3 -53 35 c-29 19 -57 37 -63 39 -5 2 -18 11 -29 20 -16 14 -67 16 -485 14 -437 -3 -468 -4 -491 -21 -62 -47 -59 -7 -62 -802 -1 -519 1 -731 9 -745 30 -54 28 -54 322 -56 l275 -2 19 24 c32 39 18 117 -30 176 -38 46 -38 46 -38 137 l0 91 50 64 c127 161 313 149 433 -29 34 -51 37 -60 36 -125 0 -53 -6 -80 -23 -110 -83 -148 -83 -149 -49 -195 l22 -30 300 0 301 0 -4 270 c-2 149 -1 281 3 293 19 76 95 94 176 41 69 -44 110 -58 171 -58 104 0 218 92 247 198 9 35 9 62 0 120 -11 69 -14 75 -33 69 -27 -8 -145 -4 -164 7 -9 4 -37 11 -62 15 -37 5 -49 12 -58 33 -12 25 -3 41 24 42 6 0 20 62 33 138 24 147 54 258 77 281 12 12 24 9 87 -21 117 -57 132 -61 210 -56 60 3 86 11 151 43 42 22 77 42 77 46 0 3 15 26 33 50 71 95 94 206 61 294 -8 22 -20 54 -25 72 -12 40 -124 145 -186 175 -42 19 -64 22 -168 23 l-120 0 2 70 c2 39 8 82 14 97 6 14 12 39 13 55 2 33 14 78 29 115 9 22 20 28 57 33 52 7 183 -13 350 -53 25 -6 101 -21 170 -32 69 -12 149 -28 179 -36 30 -9 74 -17 97 -19 24 -2 58 -8 76 -14 31 -9 201 -44 343 -71 88 -17 105 -33 107 -100 1 -30 -8 -109 -19 -175 -42 -238 -40 -266 24 -336 55 -61 81 -71 160 -62 38 4 103 7 146 6 68 -1 82 -4 104 -24 65 -60 73 -148 22 -224 -26 -38 -33 -43 -81 -48 -88 -11 -106 -8 -140 21 -40 34 -130 78 -179 87 -28 5 -47 1 -85 -18 -65 -33 -124 -102 -124 -145 0 -10 -4 -22 -8 -27 -16 -18 -31 -90 -36 -167 -5 -93 0 -117 29 -128 28 -11 43 -73 23 -97 -10 -13 -10 -17 0 -20 14 -5 17 -59 3 -67 -4 -3 -11 -25 -13 -49 -5 -39 -45 -162 -86 -260 -13 -32 -19 -37 -36 -32 -68 21 -140 27 -314 23 -191 -4 -193 -3 -188 17 26 104 27 116 16 170 -6 30 -16 57 -21 60 -5 4 -9 30 -9 59 0 43 5 57 24 75 22 21 32 23 88 18 35 -4 78 -9 96 -13 24 -5 38 -2 52 11 25 23 40 11 40 -30 0 -18 7 -41 16 -50 12 -12 15 -26 10 -59 -9 -59 9 -69 44 -26 22 27 31 32 53 26 21 -5 27 -12 27 -34 -1 -15 -7 -38 -15 -52 -21 -36 -19 -77 4 -90 40 -21 57 -12 80 43 13 28 27 60 32 69 5 9 11 34 13 55 3 21 8 57 11 81 5 42 3 45 -41 88 -26 24 -53 44 -61 44 -7 0 -21 4 -31 10 -9 5 -36 16 -58 23 -48 16 -66 10 -106 -36 -27 -30 -27 -30 -45 -10 -21 23 -120 49 -156 39 -34 -8 -117 -66 -139 -96 -10 -14 -22 -45 -26 -70 -11 -66 -34 -64 -66 4 -15 31 -29 70 -33 88 -4 20 -28 53 -67 92 -52 51 -72 64 -124 79 -90 25 -146 31 -171 18 -46 -25 -8 -65 79 -81 28 -5 59 -14 70 -20 10 -5 36 -10 58 -10 44 0 64 -20 76 -78 4 -17 12 -34 17 -37 5 -4 9 -30 9 -58 0 -54 11 -77 63 -131 15 -16 27 -33 27 -37 0 -9 -72 -78 -96 -92 -18 -10 -54 9 -54 29 0 8 -13 48 -29 87 -16 40 -34 87 -41 105 -21 55 -44 43 -93 -48 -28 -53 -26 -172 3 -228 50 -95 127 -142 234 -142 58 0 72 -4 102 -27 26 -19 62 -32 132 -45 108 -21 138 -40 148 -96 4 -19 2 -50 -4 -68 -15 -50 -3 -341 15 -359 18 -19 34 -107 22 -122 -6 -6 -31 -13 -57 -16 -74 -9 -154 -24 -185 -36 -16 -6 -38 -11 -51 -11 -12 0 -34 -13 -49 -28 -23 -24 -27 -36 -27 -90 0 -34 6 -79 14 -99 33 -93 46 -140 46 -166 0 -16 7 -43 15 -60 8 -18 18 -59 22 -92 8 -59 9 -60 38 -57 17 2 59 4 95 5 76 3 81 12 56 98 -9 29 -16 68 -16 87 0 19 -6 46 -14 60 -18 33 -47 124 -42 129 2 2 19 0 37 -5 19 -4 58 -4 88 0 78 13 81 10 81 -74 0 -40 5 -91 11 -113 5 -22 14 -85 19 -139 5 -55 14 -104 20 -110 5 -5 10 -44 10 -86 1 -41 7 -93 15 -115 8 -22 15 -76 15 -121 0 -50 6 -96 15 -117 8 -20 15 -59 15 -87 0 -27 3 -50 8 -50 4 -1 32 -2 62 -4 30 -1 68 -6 84 -11 l29 -8 -7 118 c-4 64 -11 140 -16 168 -6 27 -10 95 -10 151 -1 55 -6 135 -11 176 -6 41 -13 127 -14 190 -2 63 -6 141 -9 173 -5 53 -4 60 19 80 84 73 105 98 105 125 0 15 7 36 15 46 10 13 15 44 15 94 0 59 5 86 25 127 22 47 25 72 35 266 14 299 33 428 73 504 20 39 29 112 34 274 5 181 3 186 -54 176 -28 -5 -93 16 -93 30 0 2 9 26 19 54 16 39 18 56 10 85 -11 40 -8 57 23 126 27 58 35 80 43 107 14 52 99 33 188 -44 84 -73 126 -93 196 -93 172 0 296 156 257 323 -22 93 -96 170 -185 194 -73 19 -107 15 -199 -23 -55 -24 -96 -18 -132 18 -24 24 -31 37 -26 57 3 14 10 51 16 81 6 30 16 69 22 85 6 17 14 62 18 100 4 39 12 83 19 98 6 16 11 56 11 90 -1 49 -5 68 -23 88 -23 28 -99 59 -145 59 -15 0 -56 6 -92 15 -61 13 -101 22 -297 61 -43 8 -98 20 -123 26 -25 5 -70 14 -100 18 -30 5 -91 16 -135 25 -44 9 -107 21 -140 27 -33 5 -82 16 -109 24 -26 8 -61 14 -76 14 -16 0 -41 5 -57 11 -15 6 -55 15 -88 19 -33 4 -67 10 -75 13 -8 3 -31 0 -52 -7z m1022 -1749 c66 -21 89 -59 54 -88 -20 -17 -46 -1 -54 32 -4 18 -14 25 -35 27 -30 4 -65 27 -65 44 0 10 42 4 100 -15z m-526 -342 c8 -9 19 -31 24 -49 6 -19 28 -53 51 -76 22 -23 41 -47 41 -53 0 -26 -255 39 -267 69 -5 14 104 123 124 124 6 0 18 -7 27 -15z m720 -134 c17 -19 14 -62 -5 -87 -7 -9 -17 -94 -33 -299 -18 -218 -36 -331 -58 -361 -4 -6 -5 -33 -1 -61 4 -38 2 -57 -11 -74 -18 -26 -21 -65 -6 -74 11 -7 -19 -54 -35 -55 -6 0 -18 -13 -28 -29 -13 -22 -19 -63 -24 -155 -5 -100 -9 -124 -19 -115 -23 19 -23 21 -25 -296 0 -38 -2 -72 -5 -74 -12 -12 -24 22 -33 94 -6 44 -17 130 -26 190 -9 61 -15 136 -12 167 4 47 1 62 -14 82 -10 13 -19 28 -19 33 0 4 -18 28 -40 52 -23 25 -40 55 -40 68 0 30 -63 64 -82 45 -9 -9 -6 -18 12 -37 29 -31 21 -42 -44 -54 -46 -8 -96 -43 -96 -67 0 -6 -6 -16 -13 -22 -10 -8 -21 -3 -45 19 -37 35 -40 61 -11 90 13 13 19 30 17 47 -2 20 3 29 22 38 100 48 148 56 170 29 21 -25 35 -17 59 33 13 26 38 60 57 76 29 23 32 30 21 40 -13 9 -26 74 -29 141 0 11 -7 39 -14 63 -19 59 -18 175 2 213 13 25 13 39 4 87 -11 51 -19 64 -76 120 -35 34 -64 66 -64 71 0 11 135 22 296 26 119 2 148 9 174 39 17 22 53 20 74 -3z m-620 -1267 c11 -28 6 -54 -9 -54 -10 0 -15 11 -15 35 0 36 13 47 24 19z"/> <path d="M4102 6502 c-33 -10 -80 -59 -102 -108 -11 -23 -20 -47 -20 -51 -1 -15 -35 -49 -75 -73 -22 -13 -41 -24 -43 -25 -1 -1 25 -31 58 -66 33 -35 60 -68 60 -74 1 -23 40 -56 62 -53 18 2 24 11 28 38 8 47 -3 83 -34 117 -35 38 -34 73 4 98 16 11 30 23 30 27 0 11 125 68 148 68 37 0 92 -84 92 -141 0 -18 -8 -56 -17 -86 -13 -41 -25 -58 -50 -73 -41 -24 -44 -60 -7 -97 l26 -26 20 24 c10 13 23 33 29 44 5 11 18 34 29 50 22 33 21 31 44 100 30 93 15 145 -66 229 -27 28 -48 53 -48 57 0 22 -114 36 -168 21z"/> <path d="M3730 6103 c-13 -21 -24 -57 -24 -81 -1 -23 -7 -47 -14 -54 -22 -22 -15 -114 13 -158 31 -49 75 -90 97 -90 9 0 20 -4 23 -10 3 -5 15 -10 27 -10 18 0 19 4 13 37 -3 20 -31 73 -61 119 -53 80 -67 127 -41 137 6 2 18 26 26 51 11 39 11 52 1 72 -19 34 -34 30 -60 -13z"/> <path d="M4277 5942 c-10 -10 -17 -21 -17 -25 0 -4 34 -22 75 -41 53 -24 78 -42 84 -59 11 -27 92 -61 133 -55 l23 3 -26 25 c-168 164 -230 199 -272 152z"/> <path d="M4981 5775 c-22 -11 -20 -13 35 -20 80 -9 145 -8 157 4 14 14 -3 18 -93 24 -51 4 -83 1 -99 -8z"/> <path d="M3898 5665 c-15 -13 -29 -39 -33 -57 -4 -18 -11 -38 -16 -43 -4 -6 -11 -46 -14 -90 -4 -44 -11 -95 -17 -114 -6 -19 -14 -70 -18 -115 -15 -155 -32 -271 -46 -311 -9 -26 -11 -42 -4 -49 12 -12 151 -9 163 3 5 5 7 17 5 26 -3 16 -12 23 -58 45 -12 6 -15 26 -13 96 3 103 27 288 41 318 6 12 18 71 27 131 9 61 19 124 22 141 7 42 -7 48 -39 19z"/> <path d="M8815 5602 c-23 -6 -47 -30 -105 -109 -196 -265 -220 -301 -220 -332 1 -56 77 -101 169 -101 119 0 241 -132 241 -260 0 -93 -63 -190 -157 -240 -49 -26 -168 -28 -220 -3 -43 20 -133 108 -133 129 0 21 -29 72 -59 107 -18 19 -34 27 -58 27 -39 0 -60 -19 -120 -108 -43 -64 -119 -172 -131 -187 -62 -76 -82 -117 -82 -167 0 -49 3 -54 46 -95 26 -24 51 -43 56 -43 5 0 15 -6 22 -12 8 -7 24 -20 36 -28 12 -8 42 -30 66 -47 23 -18 47 -33 53 -33 5 0 11 -3 13 -8 2 -4 29 -24 60 -45 64 -42 78 -61 78 -105 0 -37 -27 -72 -74 -94 -20 -10 -52 -26 -72 -35 -43 -22 -82 -64 -112 -121 -18 -34 -22 -58 -20 -107 2 -49 -2 -68 -15 -83 -34 -38 -9 -105 52 -138 19 -10 42 -31 50 -46 9 -15 43 -70 76 -124 79 -128 114 -194 114 -222 2 -42 76 -173 158 -277 24 -30 45 -70 59 -112 23 -66 16 -155 -37 -523 -15 -102 -9 -130 30 -153 37 -22 36 -22 51 12 9 24 9 34 -5 61 -13 24 -14 35 -4 46 6 8 13 47 16 86 8 133 12 172 24 262 10 69 10 102 1 145 -7 32 -12 65 -12 74 0 26 -68 164 -84 170 -8 3 -17 19 -21 35 -3 17 -15 38 -27 48 -11 11 -32 36 -45 58 -14 21 -38 43 -54 49 -44 17 -35 25 31 33 33 4 63 11 66 15 3 5 9 9 15 9 5 0 4 -8 -2 -18 -19 -31 -2 -71 58 -133 60 -63 86 -77 108 -59 13 11 10 18 -21 49 -19 20 -48 59 -64 87 -16 28 -39 59 -50 69 -11 10 -20 24 -20 32 0 31 -220 293 -247 293 -7 0 -29 8 -49 17 -33 16 -35 20 -30 51 6 43 -4 68 -48 115 -32 34 -35 40 -21 53 8 9 15 22 15 30 0 22 68 122 87 128 32 10 124 92 159 141 41 58 43 88 9 137 -14 20 -25 41 -25 46 0 13 -106 102 -169 142 -30 19 -64 43 -75 53 -12 9 -40 34 -63 53 -30 25 -43 44 -43 62 0 40 21 100 44 124 12 12 41 53 66 90 47 69 101 118 131 118 9 0 29 -19 44 -42 87 -133 214 -199 350 -181 69 9 103 24 168 78 75 61 117 145 123 244 4 73 -9 112 -71 216 -29 48 -128 109 -225 137 -41 12 -45 16 -48 47 -4 39 23 95 72 152 17 19 42 53 56 75 37 62 88 97 128 89 35 -6 105 -50 136 -84 11 -12 23 -21 28 -21 10 0 65 -35 123 -79 22 -17 47 -34 55 -37 8 -4 47 -30 85 -59 39 -28 121 -87 184 -131 63 -43 130 -94 149 -111 19 -18 40 -33 47 -33 8 0 17 -5 20 -10 5 -9 40 -32 170 -115 11 -7 44 -36 74 -63 52 -49 54 -52 47 -91 -7 -45 -26 -77 -108 -190 -32 -43 -58 -83 -58 -88 0 -6 -15 -26 -32 -46 -34 -37 -72 -89 -139 -192 -44 -68 -186 -265 -221 -308 -49 -61 -108 -168 -108 -198 0 -10 -11 -19 -29 -22 -20 -4 -41 -23 -70 -64 -22 -32 -42 -62 -44 -66 -1 -5 -23 10 -47 32 -25 23 -70 58 -100 78 -30 20 -74 52 -98 71 -23 18 -77 52 -119 74 -97 50 -133 49 -201 -10 -47 -39 -51 -47 -109 -212 -18 -50 -71 -106 -120 -127 -24 -9 -32 -19 -30 -33 6 -39 22 -44 81 -26 99 31 147 97 169 233 9 50 23 103 32 117 28 42 92 44 139 4 13 -11 175 -127 206 -148 12 -8 41 -29 64 -45 57 -42 85 -54 131 -57 l40 -3 0 -207 c0 -231 3 -241 71 -254 40 -7 44 -21 9 -30 -14 -3 -25 -10 -25 -16 0 -5 -18 -47 -40 -93 -22 -46 -40 -87 -40 -90 0 -3 -12 -31 -26 -61 -14 -30 -29 -80 -34 -112 -4 -31 -13 -75 -18 -97 -6 -22 -16 -98 -22 -170 -7 -71 -14 -146 -17 -165 -11 -86 -9 -202 4 -207 20 -8 15 -35 -12 -68 l-25 -30 -172 3 c-107 2 -187 9 -210 17 -21 7 -40 10 -42 6 -5 -7 12 -495 19 -536 2 -16 9 -154 15 -305 6 -151 15 -311 21 -355 18 -136 17 -158 -15 -205 -38 -57 -28 -74 45 -78 30 -2 63 2 77 10 23 12 24 16 17 73 -12 112 -13 107 24 117 l34 9 -9 332 c-9 370 -9 466 1 580 6 67 10 80 29 87 20 8 20 9 1 9 -11 1 -38 -19 -62 -44 -23 -25 -47 -45 -53 -45 -6 0 -18 17 -26 37 -20 46 -11 165 13 185 11 9 49 13 114 13 93 0 99 -1 127 -28 27 -26 28 -31 27 -105 -2 -70 -17 -122 -36 -122 -4 0 -19 20 -33 45 -43 72 -50 60 -42 -72 17 -310 24 -350 68 -382 11 -7 61 -46 111 -87 71 -57 99 -74 124 -74 17 0 35 4 38 10 14 22 42 8 68 -35 15 -25 27 -48 27 -51 0 -3 7 -30 16 -60 14 -49 18 -54 44 -54 19 0 33 8 45 26 18 27 17 63 -4 139 -6 22 -11 61 -11 87 0 42 -3 48 -25 54 -13 3 -38 2 -54 -4 -26 -9 -32 -7 -63 26 -46 48 -114 141 -140 189 -18 35 -20 61 -24 363 -3 179 -5 332 -5 340 -1 8 3 47 9 85 6 39 15 111 22 160 48 376 52 397 115 530 52 112 75 180 75 223 0 18 8 47 17 65 22 41 22 177 0 262 -29 114 -40 196 -28 208 6 6 11 34 11 62 0 42 5 56 25 75 14 13 50 60 80 104 79 115 137 197 214 303 36 50 93 130 126 177 33 47 88 124 123 171 34 46 62 87 62 90 0 3 5 11 10 18 6 7 33 42 61 80 48 65 50 70 47 125 l-3 57 -102 75 c-183 135 -266 195 -277 199 -6 2 -46 30 -89 63 -43 32 -80 58 -82 58 -3 0 -49 33 -104 73 -55 39 -138 99 -186 132 -47 33 -123 87 -169 120 -47 33 -94 67 -106 75 -12 8 -32 23 -44 32 -27 20 -80 29 -121 20z"/> <path d="M7584 5278 c-50 -70 -52 -126 -3 -65 34 42 45 77 26 77 -8 0 -19 -6 -23 -12z"/> <path d="M7520 5133 c0 -15 4 -35 10 -43 8 -12 10 -12 15 2 9 24 2 61 -12 66 -9 2 -13 -6 -13 -25z"/> <path d="M6362 4876 c2 -15 8 -26 13 -26 15 0 12 43 -3 48 -10 3 -13 -4 -10 -22z"/> <path d="M6976 4734 c-3 -8 -1 -24 4 -34 6 -10 10 -37 10 -59 0 -31 6 -44 26 -60 47 -37 76 -21 50 26 -29 54 -35 68 -41 106 -4 27 -11 37 -24 37 -11 0 -22 -7 -25 -16z"/> <path d="M4615 4519 c-16 -25 -17 -125 -2 -159 15 -34 15 -33 16 68 1 100 -1 113 -14 91z"/> <path d="M3865 4479 c-42 -31 -121 -112 -183 -189 -21 -25 -47 -56 -59 -69 -12 -14 -28 -38 -34 -53 -10 -25 -9 -31 7 -43 11 -8 28 -15 38 -15 46 0 291 212 284 247 -3 13 -11 17 -31 15 -35 -4 -34 12 3 55 27 30 42 84 23 82 -5 0 -26 -14 -48 -30z"/> <path d="M2986 4438 c-51 -28 -97 -75 -124 -127 -17 -32 -22 -59 -22 -114 1 -77 4 -86 83 -200 43 -64 46 -91 13 -132 -22 -28 -31 -31 -128 -42 -56 -7 -161 -17 -231 -23 -146 -12 -191 -28 -220 -78 -18 -30 -19 -41 -9 -100 11 -70 26 -198 42 -368 5 -56 14 -121 19 -145 6 -24 11 -75 11 -114 0 -38 7 -99 15 -135 8 -36 14 -93 15 -126 0 -34 9 -92 21 -129 12 -39 18 -78 14 -92 -3 -14 -33 -61 -66 -104 -32 -43 -59 -82 -59 -87 0 -5 -7 -15 -15 -22 -21 -17 -18 -70 4 -99 14 -18 29 -25 54 -25 29 0 45 9 86 50 28 27 51 53 51 57 0 18 54 77 70 77 26 0 28 7 18 61 -5 30 -5 86 0 142 13 125 7 129 -62 44 -48 -60 -60 -52 -47 34 11 78 6 241 -9 269 -6 11 -10 39 -10 63 1 42 -4 90 -35 347 -10 74 -19 177 -22 228 -8 145 5 155 229 172 89 6 135 14 153 26 14 9 32 14 40 11 23 -9 92 35 121 79 38 56 42 108 12 175 -43 93 -68 157 -68 173 0 29 32 111 51 132 11 12 44 29 74 39 52 18 55 18 97 0 61 -27 85 -51 104 -107 16 -49 15 -78 -5 -153 -6 -22 -11 -68 -11 -102 0 -59 3 -66 38 -105 48 -55 47 -55 99 -62 33 -4 54 -1 84 14 46 24 50 39 12 41 -16 1 -47 3 -70 3 -45 2 -63 13 -95 58 l-20 29 30 77 c42 105 45 123 38 196 -6 56 -12 69 -52 114 -66 76 -120 102 -208 101 -52 0 -81 -6 -110 -21z"/> <path d="M3478 4108 c-34 -9 -38 -13 -38 -42 0 -18 7 -41 15 -52 8 -10 15 -26 15 -35 0 -9 7 -22 15 -29 8 -7 15 -21 15 -31 0 -23 18 -35 33 -20 19 19 55 12 89 -18 30 -26 42 -30 118 -33 73 -4 89 -8 111 -29 14 -13 29 -37 33 -54 16 -60 34 -279 26 -300 -11 -28 -69 -41 -102 -24 -35 19 -172 5 -243 -25 -101 -42 -190 -170 -195 -281 -5 -112 -2 -129 42 -195 81 -121 168 -170 297 -170 59 0 85 5 126 25 66 33 114 41 138 23 24 -18 44 -113 53 -243 l6 -100 -31 -30 c-30 -27 -33 -28 -64 -16 -17 7 -58 22 -90 34 l-58 20 -52 -24 c-40 -18 -67 -23 -115 -22 l-64 2 27 -26 c16 -17 22 -30 16 -36 -14 -14 -154 -26 -224 -19 l-60 5 7 -26 c5 -23 3 -27 -16 -27 -13 -1 -41 -7 -62 -15 -33 -12 -42 -12 -61 1 -21 13 -22 12 -33 -23 -5 -21 -16 -57 -23 -80 -6 -23 -8 -54 -4 -70 4 -15 7 -43 7 -62 -1 -23 8 -45 24 -64 26 -31 29 -54 15 -103 -8 -28 -6 -34 20 -53 16 -12 32 -34 35 -49 4 -15 15 -39 25 -54 11 -14 19 -32 19 -39 0 -6 11 -27 24 -44 14 -18 28 -44 31 -58 4 -14 15 -33 26 -43 10 -9 19 -22 19 -27 0 -6 15 -42 34 -81 67 -141 84 -196 71 -237 -9 -27 -25 -14 -25 20 0 15 -11 42 -25 61 -14 19 -29 49 -34 67 -5 18 -40 79 -78 135 -74 113 -162 197 -227 218 -35 11 -41 10 -70 -11 -42 -31 -141 -38 -172 -12 -45 40 -46 68 -8 147 13 25 13 30 -3 42 -10 7 -21 14 -25 14 -5 0 -8 9 -8 20 0 11 -7 23 -15 26 -17 7 -21 44 -4 44 14 0 2 60 -17 81 -8 8 -14 25 -14 38 0 12 -16 54 -36 93 l-36 72 -19 -25 c-18 -23 -19 -24 -49 -7 -37 21 -60 14 -60 -17 0 -27 17 -35 71 -35 44 0 45 -3 53 -105 5 -76 15 -116 33 -137 19 -21 42 -231 43 -383 0 -60 5 -141 10 -180 15 -116 8 -134 -81 -222 -44 -42 -112 -119 -152 -171 -39 -51 -93 -121 -119 -154 -27 -34 -48 -64 -48 -67 0 -3 -22 -19 -50 -34 -69 -39 -75 -53 -39 -105 16 -24 29 -56 29 -73 0 -42 34 -103 75 -135 31 -23 39 -25 60 -16 30 14 31 31 5 65 -23 29 -36 102 -26 142 6 22 11 26 29 21 19 -4 61 33 267 242 291 293 275 264 285 537 12 308 10 301 81 234 43 -41 141 -165 157 -199 4 -8 16 -28 26 -45 45 -69 105 -213 120 -285 4 -19 13 -45 19 -57 7 -12 12 -34 12 -50 1 -15 7 -39 15 -53 8 -14 14 -36 15 -50 0 -14 6 -45 14 -70 8 -25 22 -72 31 -105 9 -33 21 -73 27 -90 25 -74 26 -93 7 -136 -11 -23 -17 -50 -14 -60 7 -22 44 -33 82 -26 14 3 76 1 136 -4 136 -11 149 -8 145 34 -3 29 -7 32 -63 47 -58 15 -125 45 -125 56 0 3 7 12 15 21 16 15 13 68 -6 105 -5 9 -9 34 -9 54 0 21 -6 63 -14 93 -18 71 -36 167 -46 253 -5 37 -13 76 -19 87 -6 11 -11 39 -11 63 0 67 -35 158 -120 313 -28 50 -61 113 -76 140 -14 28 -43 84 -66 125 -82 154 -98 190 -98 223 0 19 -7 53 -15 76 -8 23 -16 65 -17 94 l-3 52 85 2 c46 1 103 7 125 13 22 6 99 12 170 13 l130 2 5 75 5 75 48 -2 c28 -1 56 -8 66 -17 10 -9 33 -16 53 -16 30 0 38 -5 54 -35 18 -35 19 -35 69 -29 62 8 85 22 109 68 18 33 18 39 3 103 -8 37 -18 111 -21 163 -3 53 -11 111 -16 130 -6 19 -10 55 -10 81 0 89 -83 120 -160 59 -21 -16 -66 -44 -100 -61 -52 -26 -71 -30 -114 -26 -73 6 -124 29 -173 76 -82 81 -107 196 -61 290 28 58 108 137 148 146 16 4 32 11 35 16 4 5 26 9 50 9 42 0 83 -13 148 -47 43 -23 120 -22 146 1 17 16 21 31 21 85 0 36 -5 82 -11 101 -6 19 -15 89 -19 154 -14 182 -26 223 -72 254 -38 25 -41 25 -101 13 -117 -24 -170 -32 -183 -27 -7 3 -13 34 -16 86 -3 72 -6 84 -27 101 -25 21 -46 22 -103 7z"/> <path d="M5810 4091 l-174 -6 -6 -24 c-3 -14 -5 -139 -4 -279 2 -238 1 -256 -18 -288 -34 -58 -97 -58 -185 0 -60 39 -113 51 -189 41 -126 -15 -250 -179 -185 -244 28 -28 38 -21 52 34 8 31 24 56 53 83 56 51 122 61 205 31 31 -12 82 -30 113 -41 l57 -21 44 24 c24 13 61 44 83 68 l39 44 6 136 c3 75 2 149 -2 165 -5 16 -4 36 1 47 12 22 13 69 1 88 -17 26 16 60 57 60 21 0 77 0 125 0 48 0 99 -5 113 -11 24 -11 27 -18 38 -83 11 -65 31 -151 38 -161 15 -22 36 -101 41 -152 4 -35 14 -63 29 -81 13 -15 29 -45 35 -67 25 -87 35 -132 43 -191 5 -34 16 -77 24 -97 8 -19 18 -57 22 -83 4 -26 16 -68 26 -93 11 -25 26 -85 34 -133 8 -48 21 -98 28 -110 8 -12 20 -55 27 -95 11 -65 11 -75 -4 -89 -14 -14 -21 -15 -56 -3 -28 9 -44 10 -53 3 -8 -7 -89 -10 -213 -9 -138 2 -219 -2 -260 -11 -80 -18 -117 -33 -112 -47 5 -14 795 -26 815 -12 9 7 7 19 -13 54 -14 24 -25 51 -25 59 0 8 -13 54 -29 101 -17 48 -37 119 -46 157 -9 39 -23 90 -30 115 -8 25 -21 74 -30 110 -16 63 -32 120 -74 265 -11 39 -23 94 -27 122 -3 29 -13 58 -20 64 -8 6 -14 24 -14 38 0 15 -6 47 -14 72 -67 215 -106 362 -106 401 -1 55 -9 57 -260 49z"/> <path d="M6155 4090 c-3 -5 -4 -14 0 -20 3 -5 14 -42 24 -82 10 -40 23 -74 30 -76 17 -6 55 81 48 110 -15 58 -81 102 -102 68z"/> <path d="M6648 4082 c-52 -32 -48 -100 11 -185 l30 -44 53 5 c29 2 57 8 62 13 5 4 -2 31 -18 62 -18 37 -26 70 -26 104 0 37 -4 53 -16 57 -28 11 -68 6 -96 -12z"/> <path d="M4593 4060 c-31 -13 -29 -28 2 -22 14 2 25 11 25 18 0 8 -1 14 -2 13 -2 0 -13 -4 -25 -9z"/> <path d="M4547 3977 c-19 -15 -55 -98 -49 -115 3 -9 44 -12 163 -12 l159 0 17 26 c16 25 16 27 -2 40 -10 8 -31 14 -45 14 -33 0 -83 15 -130 40 -41 20 -92 24 -113 7z"/> <path d="M6288 3816 c-6 -10 -6 -22 -1 -27 16 -16 333 -16 333 -1 0 5 -21 18 -47 30 -41 19 -64 21 -161 19 -99 -2 -115 -4 -124 -21z"/> <path d="M6706 3748 c-2 -7 -9 -33 -15 -58 -7 -25 -14 -53 -18 -63 -12 -38 62 10 78 50 9 23 35 22 51 -1 9 -13 37 22 38 46 0 18 -11 22 -88 33 -30 4 -44 2 -46 -7z"/> <path d="M11200 3694 c-25 -7 -72 -13 -105 -14 -33 0 -96 -7 -140 -15 -44 -8 -103 -15 -131 -15 -41 0 -55 -5 -75 -26 -34 -37 -31 -91 10 -142 17 -22 31 -43 31 -48 0 -4 6 -15 13 -23 27 -32 49 -111 43 -149 -4 -20 -9 -54 -12 -75 -7 -42 -36 -57 -72 -38 -54 29 -175 -17 -182 -69 -5 -32 0 -60 11 -60 20 0 70 -42 79 -66 6 -14 20 -26 37 -29 65 -13 78 -21 81 -45 4 -28 39 -70 58 -70 27 0 42 -29 37 -70 -7 -48 4 -64 66 -92 124 -56 149 -85 211 -238 12 -30 32 -77 45 -104 25 -54 24 -72 -6 -81 -15 -5 -18 -15 -16 -58 1 -29 -2 -64 -7 -79 l-8 -28 58 0 c33 0 99 7 147 16 80 15 90 19 114 50 26 34 26 36 19 153 -3 64 -11 133 -16 152 -6 18 -10 59 -10 89 0 30 -7 93 -15 140 -8 47 -15 110 -15 140 0 30 -7 90 -15 133 -8 43 -15 104 -15 135 0 30 -7 94 -15 141 -13 77 -25 177 -44 366 -7 71 -25 99 -74 120 -20 8 -38 14 -39 14 -2 -1 -23 -7 -48 -15z m-13 -104 c4 -16 8 -18 19 -9 30 25 77 -49 81 -126 1 -27 10 -106 19 -175 8 -69 15 -145 15 -169 0 -25 4 -51 10 -58 6 -7 11 -52 11 -100 0 -49 3 -99 8 -113 5 -14 14 -68 19 -120 10 -103 13 -119 24 -137 4 -6 7 -24 7 -40 0 -43 9 -214 15 -252 8 -62 -67 -132 -111 -103 -7 4 -17 34 -23 67 -30 155 -58 227 -127 321 -57 78 -129 134 -173 134 -17 0 -37 10 -51 25 -30 32 -20 55 31 71 19 6 49 26 67 45 28 28 33 39 28 64 -10 48 -39 70 -94 70 l-47 0 -3 41 c-2 29 -12 52 -33 75 -16 18 -29 36 -29 41 0 4 16 25 35 46 19 22 32 42 28 46 -3 3 0 17 7 31 12 22 12 30 -3 54 -9 16 -17 43 -17 59 0 16 -9 49 -20 73 -28 63 -26 85 12 103 17 9 46 16 65 16 18 0 45 7 58 16 15 10 34 14 49 10 13 -3 35 -2 48 3 40 17 69 13 75 -9z m-289 -605 c44 -46 53 -60 48 -80 -11 -45 -47 -28 -129 61 -31 34 -54 64 -50 68 3 3 22 6 41 6 29 0 44 -9 90 -55z"/> <path d="M10170 3579 c-25 -5 -96 -13 -159 -19 -168 -14 -231 -28 -252 -53 -23 -27 -24 -105 -4 -197 8 -36 15 -92 15 -125 0 -33 7 -102 14 -153 12 -74 19 -96 38 -112 37 -31 78 -25 144 22 32 24 75 51 94 60 50 26 142 24 199 -4 122 -59 202 -216 156 -304 -8 -16 -15 -37 -15 -46 0 -10 -4 -18 -9 -18 -5 0 -13 -9 -16 -20 -11 -33 -108 -99 -165 -111 -57 -12 -106 -6 -165 20 -83 38 -109 42 -148 26 -45 -19 -49 -39 -38 -175 l8 -104 -29 -29 c-36 -36 -34 -68 5 -81 21 -8 31 -6 43 6 14 14 14 21 3 53 -13 35 -12 37 11 56 14 10 34 21 45 23 11 2 54 11 95 20 106 22 219 39 258 39 17 -1 32 2 32 6 0 10 122 133 174 176 24 19 49 35 57 35 24 1 132 65 146 87 12 17 11 23 -4 42 -16 20 -22 21 -45 10 -48 -21 -108 23 -108 79 0 8 -9 26 -21 40 -21 28 -19 64 6 92 7 8 15 30 17 49 3 36 4 35 -74 71 -26 12 -65 39 -87 61 -87 88 -105 189 -51 294 38 75 41 141 7 173 -25 24 -89 28 -177 11z m65 -112 c9 -13 10 -30 3 -65 -5 -26 -6 -99 -3 -163 5 -90 4 -118 -7 -126 -7 -6 -49 -13 -93 -16 -44 -2 -93 -10 -110 -17 -16 -7 -45 -18 -63 -26 -40 -17 -62 -18 -62 -3 0 7 -7 17 -15 23 -10 7 -18 33 -21 70 -2 32 -9 67 -15 77 -6 13 -6 25 1 38 15 29 12 52 -7 67 -17 12 -17 15 -1 46 9 18 19 41 22 51 3 9 15 17 27 17 13 0 31 8 41 17 12 10 33 16 56 15 20 -1 43 2 50 6 7 5 52 8 99 7 68 -1 88 -5 98 -18z m-171 -1073 c31 -12 15 -22 -45 -29 -39 -5 -65 -3 -71 3 -8 8 -2 13 18 17 16 4 34 8 39 10 17 6 43 5 59 -1z"/> <path d="M7518 3530 c-40 -10 -72 -36 -82 -67 -5 -17 1 -18 95 -15 118 5 147 -5 190 -59 24 -31 32 -52 36 -97 4 -51 1 -62 -26 -105 -17 -26 -43 -52 -58 -58 -41 -16 -163 -16 -193 1 -14 7 -53 21 -87 31 -53 14 -65 14 -74 3 -15 -19 -4 -44 20 -44 11 0 40 -14 65 -30 111 -75 197 -89 283 -46 138 70 197 221 134 345 -20 37 -91 110 -129 130 -30 16 -130 22 -174 11z"/> <path d="M6319 3487 c6 -14 15 -34 21 -44 6 -10 18 -45 28 -78 17 -59 18 -60 56 -63 51 -4 66 11 39 40 -30 34 -34 55 -14 79 15 19 20 20 40 10 13 -7 24 -11 25 -9 47 72 49 91 5 76 -29 -10 -115 -6 -182 8 -26 6 -27 5 -18 -19z"/> <path d="M6522 3348 c-16 -16 -15 -28 2 -28 19 0 27 13 17 28 -5 9 -10 9 -19 0z"/> <path d="M2835 3341 c-8 -14 12 -23 36 -16 17 6 19 9 8 16 -18 11 -36 11 -44 0z"/> <path d="M2902 3319 c3 -10 28 -15 84 -17 99 -4 89 13 -15 23 -60 6 -73 5 -69 -6z"/> <path d="M2751 3289 c-17 -17 -31 -35 -31 -41 0 -7 -7 -19 -15 -28 -9 -10 -15 -40 -16 -82 -2 -101 15 -108 21 -9 4 53 10 86 18 89 7 2 12 10 12 18 0 8 7 17 15 20 8 3 17 14 20 25 4 10 13 19 21 19 8 0 14 5 14 10 0 20 -29 9 -59 -21z"/> <path d="M8733 3264 c-16 -17 -23 -39 -23 -64 0 -21 -4 -42 -10 -45 -18 -11 -11 -64 10 -75 17 -9 20 -21 20 -85 0 -71 2 -76 33 -107 32 -32 33 -35 20 -66 -12 -29 -11 -33 4 -40 10 -4 48 -6 84 -6 86 2 155 36 119 59 -5 3 -10 24 -10 45 0 29 7 45 30 68 24 25 28 35 23 65 -3 20 -1 37 6 41 6 4 11 35 11 70 0 59 -2 64 -37 98 -58 54 -79 63 -123 48 -33 -11 -41 -10 -61 4 -34 23 -71 20 -96 -10z m224 -126 c13 -12 23 -30 23 -39 0 -34 -40 -126 -65 -149 -14 -13 -25 -29 -25 -37 0 -22 -17 -15 -44 18 -19 22 -26 42 -26 73 0 33 -7 52 -30 81 -32 41 -34 44 -22 61 13 20 36 24 102 18 47 -4 71 -11 87 -26z"/> <path d="M3083 3207 c4 -58 10 -80 26 -96 42 -42 49 -23 23 54 -6 17 -14 48 -19 69 -4 22 -14 42 -22 44 -12 4 -13 -9 -8 -71z"/> <path d="M4924 3226 c-42 -36 -52 -61 -71 -195 -7 -51 -12 -58 -63 -99 -70 -57 -73 -63 -81 -146 -3 -37 -10 -71 -15 -75 -5 -3 -27 -32 -49 -64 l-39 -59 2 -113 c2 -117 22 -196 59 -238 40 -44 116 -59 182 -36 35 12 37 25 16 84 -8 22 -15 54 -15 70 -1 17 -7 48 -15 70 -8 22 -18 68 -21 101 -6 52 -3 69 16 107 25 50 62 82 109 94 17 4 31 11 31 16 0 4 0 29 0 56 0 34 -6 55 -17 67 -27 26 -22 138 7 187 25 41 44 47 60 17 12 -23 81 -70 125 -85 28 -10 30 -13 27 -55 -3 -31 -13 -56 -33 -82 -30 -38 -36 -72 -19 -98 9 -13 13 -12 28 8 10 13 29 45 43 70 13 26 28 53 34 61 5 8 15 39 21 68 12 61 14 59 -72 82 -25 7 -58 28 -87 57 -48 47 -54 61 -59 124 -3 31 -6 35 -33 38 -22 1 -41 -7 -71 -32z m-24 -401 c0 -8 -4 -15 -10 -15 -5 0 -10 7 -10 15 0 8 5 15 10 15 6 0 10 -7 10 -15z"/> <path d="M6427 3193 c-12 -12 -7 -58 9 -81 9 -13 24 -58 35 -100 11 -42 27 -102 35 -132 9 -30 18 -70 21 -88 6 -39 17 -46 59 -44 21 2 34 -3 38 -13 4 -12 23 -15 88 -15 75 0 87 3 127 30 24 17 50 30 58 30 19 0 52 40 53 62 0 9 -9 33 -21 52 l-21 36 -37 -30 c-21 -16 -44 -36 -51 -45 -7 -9 -28 -15 -51 -15 -34 0 -69 -20 -69 -39 0 -4 -16 -16 -35 -27 l-35 -18 -30 34 c-17 20 -29 47 -30 63 0 15 -6 40 -14 55 -7 15 -16 47 -20 71 -4 24 -13 56 -22 72 -11 22 -12 38 -6 62 11 41 6 54 -28 72 -32 17 -43 18 -53 8z"/> <path d="M6560 3145 c0 -8 7 -15 15 -15 9 0 12 6 9 15 -4 8 -10 15 -15 15 -5 0 -9 -7 -9 -15z"/> <path d="M5565 3140 c-3 -5 -1 -10 4 -10 6 0 23 -18 37 -40 26 -40 27 -43 28 -217 l1 -176 -51 -51 c-66 -66 -198 -185 -238 -214 -17 -12 -34 -29 -39 -37 -13 -24 -41 -17 -73 18 -16 17 -43 43 -59 57 -17 14 -63 53 -103 88 -85 73 -107 77 -151 26 -52 -59 -32 -92 125 -212 60 -46 129 -101 155 -123 25 -22 51 -44 59 -49 11 -7 10 -13 -4 -35 -20 -31 -23 -125 -7 -226 6 -35 13 -93 16 -129 3 -36 9 -99 13 -140 10 -109 6 -270 -7 -283 -6 -6 -42 -13 -80 -15 l-69 -4 -7 -130 c-8 -150 0 -315 20 -408 22 -106 37 -182 45 -240 17 -120 53 -158 101 -107 21 22 21 26 18 367 -1 190 -2 388 -1 441 2 96 2 97 30 108 38 16 57 67 43 118 -6 21 -11 65 -11 97 0 33 -7 101 -15 150 -8 50 -19 136 -24 191 -14 131 -27 221 -35 233 -3 6 15 28 41 48 61 49 165 153 226 225 42 51 52 57 94 62 29 3 52 12 60 23 22 30 16 97 -13 140 -25 36 -25 39 -10 65 12 21 16 55 16 146 0 114 -1 121 -29 165 -16 25 -38 49 -49 52 -11 4 -23 13 -26 21 -6 17 -22 20 -31 5z m-523 -616 c23 -20 49 -47 55 -59 7 -13 22 -26 33 -30 11 -3 25 -15 30 -26 6 -10 17 -19 24 -19 18 0 59 -47 51 -59 -10 -18 -39 -13 -53 9 -7 11 -19 20 -27 20 -8 0 -27 11 -42 25 -15 14 -53 44 -83 68 -43 34 -56 50 -58 75 -4 43 14 42 70 -4z"/> <path d="M5443 3075 c-30 -20 -53 -42 -53 -52 0 -10 -7 -27 -15 -37 -8 -11 -15 -26 -15 -33 0 -7 -34 -58 -75 -114 -41 -55 -75 -105 -75 -110 0 -5 8 -9 19 -9 40 0 49 -35 41 -158 -3 -45 0 -57 19 -75 l23 -22 -6 35 c-19 98 -19 100 -2 100 9 0 21 10 26 23 6 12 19 36 30 52 11 17 24 39 30 50 6 11 19 34 30 50 11 17 23 37 26 45 4 8 12 21 18 29 13 16 34 86 45 151 5 25 12 60 16 78 6 27 5 32 -11 31 -11 0 -43 -15 -71 -34z"/> <path d="M3141 3045 c-9 -25 -9 -40 -2 -54 6 -11 11 -33 11 -50 0 -40 16 -40 22 -1 6 39 -2 140 -11 140 -4 0 -13 -16 -20 -35z"/> <path d="M9171 3023 c-5 -16 -19 -44 -30 -63 -11 -19 -30 -56 -42 -82 -12 -27 -26 -48 -31 -48 -4 0 -8 -7 -8 -15 0 -21 49 -19 67 3 30 38 64 94 79 132 14 33 14 45 4 70 -15 37 -25 38 -39 3z"/> <path d="M2720 3035 c0 -13 30 -62 44 -74 21 -18 21 -87 0 -95 -14 -5 -14 -7 0 -22 23 -22 20 -49 -6 -67 -22 -15 -23 -15 -3 -22 11 -4 32 -13 47 -21 14 -8 35 -14 45 -14 10 0 23 -4 29 -9 14 -13 156 8 177 27 12 11 16 24 12 43 -5 23 0 32 34 60 46 37 51 49 19 48 -44 -1 -83 -33 -86 -70 -2 -18 -9 -37 -15 -41 -19 -11 -170 4 -194 20 -26 16 -31 52 -8 52 19 0 31 49 16 69 -6 9 -15 25 -20 36 -5 11 -26 35 -46 53 -37 32 -45 37 -45 27z"/> <path d="M3080 2736 c0 -9 7 -16 16 -16 9 0 14 5 12 12 -6 18 -28 21 -28 4z"/> <path d="M5077 2665 c74 -84 133 -99 133 -33 0 55 -10 78 -34 78 -12 0 -27 -5 -33 -11 -9 -9 -22 -8 -53 5 -63 25 -65 20 -13 -39z"/> <path d="M6570 2609 c0 -13 7 -33 15 -43 8 -11 15 -35 15 -53 0 -24 5 -33 18 -34 9 -1 109 0 222 1 202 2 243 8 209 33 -11 8 -14 23 -11 48 2 23 -1 40 -9 44 -7 5 -87 9 -178 10 -91 2 -192 6 -223 10 -56 7 -58 7 -58 -16z m438 -77 c5 -16 -20 -15 -43 1 -27 20 -10 43 18 24 11 -7 23 -19 25 -25z"/> <path d="M10683 2414 c-3 -8 -1 -20 6 -27 8 -8 11 -4 11 16 0 30 -7 35 -17 11z"/> <path d="M6570 2376 c-10 -20 -10 -33 -1 -68 7 -24 17 -65 23 -93 5 -27 13 -54 18 -60 4 -5 11 -30 15 -55 4 -25 14 -57 21 -72 8 -15 14 -38 14 -51 0 -14 7 -38 15 -53 8 -16 15 -43 15 -61 0 -17 4 -34 9 -38 6 -3 13 -27 17 -53 3 -26 10 -51 14 -57 4 -5 11 -31 14 -57 4 -25 14 -52 21 -58 8 -7 15 -27 15 -44 0 -17 7 -40 15 -50 8 -11 15 -32 15 -46 0 -14 7 -35 15 -46 8 -10 15 -35 15 -55 0 -20 7 -42 15 -49 10 -8 15 -30 15 -61 0 -36 4 -49 14 -49 10 0 17 17 21 55 6 45 4 60 -14 90 -14 24 -19 44 -15 65 5 22 2 31 -9 36 -9 3 -18 23 -22 45 -4 24 -12 39 -21 39 -9 0 -14 11 -14 29 l0 29 41 -12 c22 -7 44 -19 49 -27 8 -12 57 -14 287 -16 153 -1 283 -2 289 -2 7 -1 15 -22 19 -48 4 -27 10 -52 15 -58 4 -5 11 -26 15 -45 4 -19 12 -40 17 -47 5 -6 12 -37 15 -67 3 -31 12 -61 19 -67 8 -6 14 -20 14 -29 0 -29 11 -50 25 -50 8 0 17 -9 20 -20 3 -11 11 -20 16 -20 13 0 11 34 -2 47 -14 14 -40 111 -46 173 -3 25 -9 50 -14 56 -5 6 -12 31 -15 54 -3 24 -12 58 -20 76 -8 18 -14 44 -14 57 0 13 -5 28 -11 34 -6 6 -13 28 -16 49 -2 22 -11 56 -19 77 -8 20 -14 51 -14 67 0 16 -4 32 -10 35 -5 3 -10 16 -10 28 0 12 -6 39 -14 62 -7 22 -24 74 -37 115 -29 91 -26 88 -44 64 -19 -25 -19 -83 1 -147 8 -29 20 -70 25 -92 6 -22 15 -53 21 -70 6 -16 15 -48 22 -71 6 -23 16 -47 23 -55 19 -23 28 -89 12 -89 -22 0 -42 17 -35 29 4 6 6 12 4 13 -2 1 -140 5 -307 8 l-304 5 -24 90 c-13 50 -28 109 -33 133 -5 23 -14 50 -19 60 -5 9 -12 37 -16 61 -4 25 -14 51 -21 59 -8 7 -14 23 -14 35 0 13 -7 33 -16 45 -20 29 -12 39 21 24 15 -7 75 -12 141 -12 125 0 137 7 73 42 -29 17 -49 19 -136 15 l-102 -5 -14 32 c-8 17 -17 51 -21 75 -7 47 -44 141 -56 141 -3 0 -12 -11 -20 -24z"/> <path d="M3801 2295 l-22 -38 22 -23 c30 -32 49 -30 101 9 52 40 55 59 8 69 -19 4 -47 10 -61 13 -22 6 -29 2 -48 -30z"/> <path d="M10650 2310 c0 -11 5 -20 10 -20 6 0 10 9 10 20 0 11 -4 20 -10 20 -5 0 -10 -9 -10 -20z"/> <path d="M7115 2260 c-3 -5 -23 -14 -43 -20 -49 -13 -70 -30 -74 -60 l-3 -24 175 1 175 1 3 43 c1 24 -2 51 -7 59 -9 13 -14 13 -40 -3 -36 -21 -81 -22 -107 -2 -22 16 -70 20 -79 5z"/> <path d="M10324 2210 c-28 -11 -186 -30 -254 -30 -61 0 -72 -5 -89 -38 -10 -19 -19 -23 -49 -20 l-37 3 -3 -50 c-6 -98 77 -167 173 -145 22 5 65 10 95 10 30 0 90 7 133 15 43 8 97 15 120 15 23 0 52 3 64 6 26 7 43 50 43 108 0 23 4 57 10 76 5 19 9 40 9 45 0 14 -43 6 -52 -11 -12 -22 -79 -18 -100 6 -18 21 -30 23 -63 10z m14 -69 c19 -2 14 -19 -8 -26 -25 -8 -26 -24 0 -33 14 -5 17 -11 10 -22 -7 -12 -13 -13 -28 -3 -12 7 -24 8 -33 2 -22 -14 -51 -11 -64 8 -11 15 -14 14 -33 -5 -28 -28 -59 -28 -112 1 -81 42 -60 69 60 77 65 4 168 5 208 1z"/> <path d="M10979 2208 c-1 -2 -7 -39 -14 -83 -11 -70 -11 -81 3 -92 20 -16 32 -16 32 -2 0 7 14 34 30 61 17 26 30 55 30 62 0 8 -13 20 -30 28 -16 7 -30 16 -30 20 0 7 -18 12 -21 6z"/> <path d="M4876 2126 c-14 -30 -26 -63 -26 -73 0 -11 -5 -24 -10 -29 -38 -38 -55 -267 -30 -418 16 -96 12 -352 -5 -410 -20 -66 -21 -358 -1 -459 8 -40 17 -110 21 -157 7 -97 22 -125 53 -97 10 9 26 17 35 17 34 0 36 19 57 415 9 188 32 402 46 439 6 17 4 18 -22 12 -16 -4 -50 -9 -75 -13 -54 -6 -68 6 -45 42 17 25 19 76 14 350 -2 139 0 172 20 250 37 144 15 232 -32 131z"/> <path d="M11070 2045 c-19 -14 -42 -25 -50 -25 -25 0 -40 -21 -40 -58 0 -33 1 -34 32 -28 37 7 114 68 123 97 5 14 2 25 -6 30 -19 12 -19 12 -59 -16z"/> <path d="M10494 1903 c-14 -44 -38 -101 -56 -133 -10 -19 -26 -48 -34 -65 -8 -16 -23 -43 -34 -60 -34 -52 -57 -109 -64 -153 -5 -35 -2 -51 18 -85 32 -54 81 -102 126 -122 19 -8 42 -19 50 -24 37 -22 90 -41 117 -41 16 0 54 -7 85 -15 31 -8 85 -14 120 -14 34 0 75 -2 91 -6 26 -7 27 -6 27 31 0 22 6 71 14 109 36 170 45 225 51 302 8 109 -3 221 -24 242 -13 13 -54 20 -181 29 -91 7 -195 15 -233 18 -59 5 -68 3 -73 -13z m326 -96 c8 -3 27 -8 42 -11 21 -5 30 -15 38 -46 23 -87 -20 -385 -65 -446 -11 -16 -20 -17 -91 -7 -92 12 -190 38 -221 59 -12 7 -29 14 -37 14 -20 0 -76 79 -76 107 0 21 33 104 66 163 7 14 24 45 36 70 13 25 34 60 47 79 l24 33 111 -5 c61 -3 118 -8 126 -10z"/> <path d="M5032 1408 c-21 -21 -13 -28 27 -28 51 0 60 15 19 29 -37 13 -32 13 -46 -1z"/> <path d="M10228 1361 c-37 -55 -38 -61 -37 -142 0 -46 5 -136 11 -199 5 -63 13 -196 16 -295 l7 -180 50 -7 c57 -8 65 -2 65 54 0 20 4 48 10 62 9 23 16 78 41 311 11 107 2 278 -15 272 -6 -2 -21 -18 -33 -37 -21 -30 -23 -45 -23 -152 0 -118 -15 -188 -39 -188 -6 0 -12 21 -13 48 -5 111 -6 144 -7 273 -1 78 3 155 9 179 17 64 -1 65 -42 1z"/> <path d="M6906 1143 c-3 -26 -2 -51 2 -55 11 -11 37 66 29 86 -12 29 -24 16 -31 -31z"/> <path d="M10934 1136 c-9 -23 16 -64 74 -118 12 -12 22 -26 22 -32 0 -5 7 -17 16 -27 9 -10 14 -24 11 -31 -3 -8 -9 -2 -16 15 -6 15 -18 27 -27 27 -15 0 -52 25 -169 118 -62 48 -85 53 -85 19 0 -26 30 -56 170 -172 52 -44 100 -84 106 -90 6 -5 35 -30 64 -55 109 -91 146 -123 167 -146 12 -13 27 -24 32 -24 16 0 31 36 31 75 0 36 -23 72 -97 155 -13 14 -23 28 -23 32 0 3 -6 13 -12 20 -7 7 -46 52 -86 100 -61 74 -145 148 -167 148 -3 0 -8 -6 -11 -14z"/> <path d="M6940 1118 c0 -7 4 -19 9 -26 7 -11 10 -10 15 3 3 9 4 21 0 26 -8 13 -24 11 -24 -3z"/> <path d="M7020 1018 c0 -17 36 -20 274 -23 240 -3 297 1 265 21 -16 9 -539 12 -539 2z"/> <path d="M7670 971 c0 -12 5 -21 10 -21 6 0 10 6 10 14 0 8 -4 18 -10 21 -5 3 -10 -3 -10 -14z"/> <path d="M6975 920 c-3 -5 1 -23 10 -40 9 -17 13 -40 9 -54 -8 -33 4 -69 21 -62 11 4 12 -7 8 -50 -5 -50 -4 -56 16 -61 12 -3 21 -13 21 -24 0 -11 5 -19 10 -19 19 0 22 28 7 62 -8 18 -18 51 -21 73 -3 22 -13 45 -22 52 -10 7 -14 19 -10 28 10 26 -4 63 -25 68 -13 3 -17 11 -13 21 7 17 -1 22 -11 6z"/> <path d="M7660 910 c0 -6 7 -13 16 -17 13 -5 15 -16 9 -60 -6 -49 -5 -55 14 -60 18 -4 19 -11 14 -55 -5 -39 -3 -54 9 -62 8 -6 18 -32 22 -58 4 -26 11 -50 17 -53 5 -4 9 -33 9 -66 0 -53 3 -61 24 -71 53 -24 71 12 36 70 -11 18 -20 46 -20 61 0 16 -7 42 -14 58 -20 38 -46 126 -46 155 0 14 -7 33 -15 44 -8 10 -15 33 -15 49 0 17 -7 41 -16 53 -16 23 -44 30 -44 12z"/> <path d="M7057 573 c-4 -18 -1 -32 9 -39 9 -7 14 -30 14 -66 0 -54 1 -56 31 -62 54 -10 64 14 29 72 -11 18 -20 43 -20 55 0 21 -36 67 -52 67 -3 0 -8 -12 -11 -27z"/> <path d="M11330 505 c-7 -8 -18 -15 -24 -15 -14 0 -67 -66 -59 -74 4 -3 18 -6 33 -6 33 0 68 35 76 78 7 34 -5 42 -26 17z"/> <path d="M10090 471 c-40 -5 -45 -9 -45 -31 0 -27 -6 -26 125 -22 33 1 60 7 60 12 0 6 -6 10 -14 10 -7 0 -25 9 -39 20 -14 11 -29 19 -34 18 -4 0 -28 -4 -53 -7z"/> <path d="M10320 450 c-8 -5 -31 -10 -50 -10 -29 -1 -32 -2 -17 -11 28 -16 101 -7 105 14 4 19 -14 22 -38 7z"/> <path d="M5350 440 c-13 -9 -13 -11 0 -20 42 -27 134 -19 105 9 -16 14 -89 22 -105 11z"/> <path d="M4970 430 c0 -14 40 -32 57 -26 12 5 13 9 3 21 -14 17 -60 21 -60 5z"/> </g> </svg> 